<svg width="371" height="223" viewBox="0 0 371 223" fill="none" xmlns="http://www.w3.org/2000/svg">
<rect width="371" height="223" fill="#0D1117"/>
<g filter="url(#filter0_i_2308_7)">
<rect x="6" y="9" width="359" height="208" rx="13" fill="#55330B"/>
</g>
<g filter="url(#filter1_i_2308_7)">
<path d="M44.5682 130.575C41.5511 130.575 38.956 129.936 36.7827 128.658C34.6222 127.366 32.9602 125.577 31.7969 123.288C30.6463 121 30.071 118.366 30.071 115.388C30.071 112.371 30.6527 109.724 31.8161 107.449C32.9922 105.161 34.6605 103.377 36.821 102.099C38.9815 100.808 41.5511 100.162 44.5298 100.162C47.0994 100.162 49.3494 100.629 51.2798 101.562C53.2102 102.495 54.7379 103.805 55.8629 105.493C56.9879 107.18 57.608 109.162 57.723 111.438H50.0142C49.7969 109.967 49.2216 108.785 48.2884 107.89C47.3679 106.982 46.1598 106.528 44.6641 106.528C43.3984 106.528 42.2926 106.874 41.3466 107.564C40.4134 108.241 39.6847 109.232 39.1605 110.536C38.6364 111.84 38.3743 113.419 38.3743 115.273C38.3743 117.152 38.63 118.75 39.1413 120.067C39.6655 121.384 40.4006 122.387 41.3466 123.077C42.2926 123.768 43.3984 124.113 44.6641 124.113C45.5973 124.113 46.4347 123.921 47.1761 123.538C47.9304 123.154 48.5504 122.598 49.0362 121.869C49.5348 121.128 49.8608 120.239 50.0142 119.204H57.723C57.5952 121.454 56.9815 123.435 55.8821 125.148C54.7955 126.849 53.2933 128.178 51.3757 129.137C49.4581 130.096 47.1889 130.575 44.5682 130.575ZM76.2615 130.575C73.2828 130.575 70.7069 129.942 68.5336 128.677C66.373 127.398 64.7047 125.621 63.5286 123.346C62.3525 121.058 61.7644 118.405 61.7644 115.388C61.7644 112.345 62.3525 109.686 63.5286 107.411C64.7047 105.122 66.373 103.345 68.5336 102.08C70.7069 100.801 73.2828 100.162 76.2615 100.162C79.2402 100.162 81.8098 100.801 83.9703 102.08C86.1436 103.345 87.8184 105.122 88.9945 107.411C90.1706 109.686 90.7587 112.345 90.7587 115.388C90.7587 118.405 90.1706 121.058 88.9945 123.346C87.8184 125.621 86.1436 127.398 83.9703 128.677C81.8098 129.942 79.2402 130.575 76.2615 130.575ZM76.2999 124.247C77.655 124.247 78.7864 123.864 79.6941 123.097C80.6017 122.317 81.2857 121.256 81.7459 119.913C82.2189 118.571 82.4554 117.043 82.4554 115.33C82.4554 113.617 82.2189 112.089 81.7459 110.747C81.2857 109.405 80.6017 108.344 79.6941 107.564C78.7864 106.784 77.655 106.394 76.2999 106.394C74.932 106.394 73.7814 106.784 72.8482 107.564C71.9277 108.344 71.231 109.405 70.758 110.747C70.2978 112.089 70.0676 113.617 70.0676 115.33C70.0676 117.043 70.2978 118.571 70.758 119.913C71.231 121.256 71.9277 122.317 72.8482 123.097C73.7814 123.864 74.932 124.247 76.2999 124.247ZM104.24 112.972V130H96.0705V100.545H103.856V105.742H104.201C104.853 104.029 105.946 102.674 107.48 101.677C109.014 100.667 110.874 100.162 113.061 100.162C115.106 100.162 116.889 100.609 118.411 101.504C119.932 102.399 121.115 103.678 121.958 105.339C122.802 106.989 123.224 108.957 123.224 111.246V130H115.055V112.703C115.068 110.901 114.607 109.494 113.674 108.484C112.741 107.462 111.456 106.95 109.82 106.95C108.72 106.95 107.749 107.187 106.905 107.66C106.074 108.133 105.422 108.823 104.949 109.731C104.489 110.626 104.252 111.706 104.24 112.972ZM156.068 100.545L145.77 130H136.566L126.268 100.545H134.897L141.015 121.62H141.321L147.419 100.545H156.068Z" fill="white"/>
</g>
<g filter="url(#filter2_i_2308_7)">
<path d="M168.035 130.499C166.769 130.499 165.683 130.051 164.775 129.156C163.88 128.249 163.433 127.162 163.433 125.896C163.433 124.643 163.88 123.57 164.775 122.675C165.683 121.78 166.769 121.332 168.035 121.332C169.262 121.332 170.336 121.78 171.256 122.675C172.177 123.57 172.637 124.643 172.637 125.896C172.637 126.74 172.42 127.513 171.985 128.217C171.563 128.907 171.007 129.463 170.317 129.885C169.626 130.294 168.866 130.499 168.035 130.499ZM212.346 90.7273V130H205.174L188.088 105.282H187.801V130H179.497V90.7273H186.784L203.736 115.426H204.081V90.7273H212.346ZM219.206 130V90.7273H245.669V97.5732H227.51V106.931H244.308V113.777H227.51V123.154H245.746V130H219.206ZM261.111 130L249.874 90.7273H258.944L265.445 118.015H265.771L272.943 90.7273H280.709L287.862 118.072H288.207L294.708 90.7273H303.778L292.541 130H284.448L276.97 104.323H276.663L269.203 130H261.111ZM329.157 102.022C329.004 100.475 328.346 99.2734 327.182 98.4169C326.019 97.5604 324.44 97.1321 322.446 97.1321C321.091 97.1321 319.947 97.3239 319.013 97.7074C318.08 98.0781 317.364 98.5959 316.866 99.2607C316.38 99.9254 316.137 100.68 316.137 101.523C316.111 102.227 316.258 102.84 316.578 103.364C316.91 103.888 317.364 104.342 317.939 104.726C318.515 105.097 319.18 105.423 319.934 105.704C320.688 105.972 321.493 106.202 322.35 106.394L325.878 107.238C327.591 107.621 329.164 108.133 330.596 108.772C332.028 109.411 333.268 110.197 334.316 111.131C335.364 112.064 336.176 113.163 336.751 114.429C337.339 115.695 337.64 117.146 337.653 118.782C337.64 121.185 337.026 123.269 335.812 125.033C334.61 126.785 332.871 128.146 330.596 129.118C328.333 130.077 325.604 130.556 322.407 130.556C319.237 130.556 316.476 130.07 314.123 129.099C311.784 128.127 309.956 126.689 308.639 124.784C307.335 122.866 306.651 120.495 306.587 117.67H314.622C314.711 118.987 315.089 120.086 315.753 120.968C316.431 121.837 317.332 122.496 318.457 122.943C319.595 123.378 320.88 123.595 322.312 123.595C323.718 123.595 324.939 123.391 325.974 122.982C327.023 122.572 327.834 122.004 328.41 121.275C328.985 120.546 329.273 119.709 329.273 118.763C329.273 117.881 329.01 117.139 328.486 116.538C327.975 115.937 327.221 115.426 326.224 115.004C325.239 114.582 324.031 114.199 322.599 113.854L318.323 112.78C315.012 111.974 312.398 110.715 310.48 109.002C308.562 107.289 307.61 104.982 307.623 102.08C307.61 99.7017 308.243 97.6243 309.521 95.8473C310.812 94.0703 312.583 92.6832 314.833 91.6861C317.083 90.6889 319.64 90.1903 322.503 90.1903C325.418 90.1903 327.962 90.6889 330.135 91.6861C332.322 92.6832 334.022 94.0703 335.236 95.8473C336.451 97.6243 337.077 99.6825 337.116 102.022H329.157Z" fill="#FFB803"/>
</g>
<g filter="url(#filter3_i_2308_7)">
<circle cx="26.5" cy="32.5" r="6.5" fill="#D29700"/>
</g>
<g filter="url(#filter4_i_2308_7)">
<circle cx="26.5" cy="195.5" r="6.5" fill="#D29700"/>
</g>
<g filter="url(#filter5_i_2308_7)">
<circle cx="341.5" cy="32.5" r="6.5" fill="#D29700"/>
</g>
<g filter="url(#filter6_i_2308_7)">
<circle cx="341.5" cy="195.5" r="6.5" fill="#D29700"/>
</g>
<defs>
<filter id="filter0_i_2308_7" x="6" y="9" width="359" height="208" filterUnits="userSpaceOnUse" color-interpolation-filters="sRGB">
<feFlood flood-opacity="0" result="BackgroundImageFix"/>
<feBlend mode="normal" in="SourceGraphic" in2="BackgroundImageFix" result="shape"/>
<feColorMatrix in="SourceAlpha" type="matrix" values="0 0 0 0 0 0 0 0 0 0 0 0 0 0 0 0 0 0 127 0" result="hardAlpha"/>
<feMorphology radius="5" operator="erode" in="SourceAlpha" result="effect1_innerShadow_2308_7"/>
<feOffset/>
<feGaussianBlur stdDeviation="10"/>
<feComposite in2="hardAlpha" operator="arithmetic" k2="-1" k3="1"/>
<feColorMatrix type="matrix" values="0 0 0 0 0.0708333 0 0 0 0 0.0518264 0 0 0 0 0.00295139 0 0 0 1 0"/>
<feBlend mode="normal" in2="shape" result="effect1_innerShadow_2308_7"/>
</filter>
<filter id="filter1_i_2308_7" x="30.071" y="100.162" width="126.997" height="31.4134" filterUnits="userSpaceOnUse" color-interpolation-filters="sRGB">
<feFlood flood-opacity="0" result="BackgroundImageFix"/>
<feBlend mode="normal" in="SourceGraphic" in2="BackgroundImageFix" result="shape"/>
<feColorMatrix in="SourceAlpha" type="matrix" values="0 0 0 0 0 0 0 0 0 0 0 0 0 0 0 0 0 0 127 0" result="hardAlpha"/>
<feOffset dx="1" dy="1"/>
<feGaussianBlur stdDeviation="2"/>
<feComposite in2="hardAlpha" operator="arithmetic" k2="-1" k3="1"/>
<feColorMatrix type="matrix" values="0 0 0 0 0.3625 0 0 0 0 0.25517 0 0 0 0 0.0468229 0 0 0 1 0"/>
<feBlend mode="normal" in2="shape" result="effect1_innerShadow_2308_7"/>
</filter>
<filter id="filter2_i_2308_7" x="163.433" y="90.1903" width="174.22" height="43.3658" filterUnits="userSpaceOnUse" color-interpolation-filters="sRGB">
<feFlood flood-opacity="0" result="BackgroundImageFix"/>
<feBlend mode="normal" in="SourceGraphic" in2="BackgroundImageFix" result="shape"/>
<feColorMatrix in="SourceAlpha" type="matrix" values="0 0 0 0 0 0 0 0 0 0 0 0 0 0 0 0 0 0 127 0" result="hardAlpha"/>
<feOffset dy="3"/>
<feGaussianBlur stdDeviation="2"/>
<feComposite in2="hardAlpha" operator="arithmetic" k2="-1" k3="1"/>
<feColorMatrix type="matrix" values="0 0 0 0 0.658333 0 0 0 0 0.4345 0 0 0 0 0 0 0 0 1 0"/>
<feBlend mode="normal" in2="shape" result="effect1_innerShadow_2308_7"/>
</filter>
<filter id="filter3_i_2308_7" x="20" y="26" width="13" height="17" filterUnits="userSpaceOnUse" color-interpolation-filters="sRGB">
<feFlood flood-opacity="0" result="BackgroundImageFix"/>
<feBlend mode="normal" in="SourceGraphic" in2="BackgroundImageFix" result="shape"/>
<feColorMatrix in="SourceAlpha" type="matrix" values="0 0 0 0 0 0 0 0 0 0 0 0 0 0 0 0 0 0 127 0" result="hardAlpha"/>
<feOffset dy="4"/>
<feGaussianBlur stdDeviation="2"/>
<feComposite in2="hardAlpha" operator="arithmetic" k2="-1" k3="1"/>
<feColorMatrix type="matrix" values="0 0 0 0 0.108333 0 0 0 0 0.074109 0 0 0 0 0.00767361 0 0 0 0.49 0"/>
<feBlend mode="normal" in2="shape" result="effect1_innerShadow_2308_7"/>
</filter>
<filter id="filter4_i_2308_7" x="20" y="189" width="13" height="17" filterUnits="userSpaceOnUse" color-interpolation-filters="sRGB">
<feFlood flood-opacity="0" result="BackgroundImageFix"/>
<feBlend mode="normal" in="SourceGraphic" in2="BackgroundImageFix" result="shape"/>
<feColorMatrix in="SourceAlpha" type="matrix" values="0 0 0 0 0 0 0 0 0 0 0 0 0 0 0 0 0 0 127 0" result="hardAlpha"/>
<feOffset dy="4"/>
<feGaussianBlur stdDeviation="2"/>
<feComposite in2="hardAlpha" operator="arithmetic" k2="-1" k3="1"/>
<feColorMatrix type="matrix" values="0 0 0 0 0.108333 0 0 0 0 0.074109 0 0 0 0 0.00767361 0 0 0 0.49 0"/>
<feBlend mode="normal" in2="shape" result="effect1_innerShadow_2308_7"/>
</filter>
<filter id="filter5_i_2308_7" x="335" y="26" width="13" height="17" filterUnits="userSpaceOnUse" color-interpolation-filters="sRGB">
<feFlood flood-opacity="0" result="BackgroundImageFix"/>
<feBlend mode="normal" in="SourceGraphic" in2="BackgroundImageFix" result="shape"/>
<feColorMatrix in="SourceAlpha" type="matrix" values="0 0 0 0 0 0 0 0 0 0 0 0 0 0 0 0 0 0 127 0" result="hardAlpha"/>
<feOffset dy="4"/>
<feGaussianBlur stdDeviation="2"/>
<feComposite in2="hardAlpha" operator="arithmetic" k2="-1" k3="1"/>
<feColorMatrix type="matrix" values="0 0 0 0 0.108333 0 0 0 0 0.074109 0 0 0 0 0.00767361 0 0 0 0.49 0"/>
<feBlend mode="normal" in2="shape" result="effect1_innerShadow_2308_7"/>
</filter>
<filter id="filter6_i_2308_7" x="335" y="189" width="13" height="17" filterUnits="userSpaceOnUse" color-interpolation-filters="sRGB">
<feFlood flood-opacity="0" result="BackgroundImageFix"/>
<feBlend mode="normal" in="SourceGraphic" in2="BackgroundImageFix" result="shape"/>
<feColorMatrix in="SourceAlpha" type="matrix" values="0 0 0 0 0 0 0 0 0 0 0 0 0 0 0 0 0 0 127 0" result="hardAlpha"/>
<feOffset dy="4"/>
<feGaussianBlur stdDeviation="2"/>
<feComposite in2="hardAlpha" operator="arithmetic" k2="-1" k3="1"/>
<feColorMatrix type="matrix" values="0 0 0 0 0.108333 0 0 0 0 0.074109 0 0 0 0 0.00767361 0 0 0 0.49 0"/>
<feBlend mode="normal" in2="shape" result="effect1_innerShadow_2308_7"/>
</filter>
</defs>
</svg>
