<svg width="371" height="223" viewBox="0 0 371 223" fill="none" xmlns="http://www.w3.org/2000/svg">
<rect width="371" height="223" fill="#0D1117"/>
<g filter="url(#filter0_i_2308_7)">
<rect x="6" y="9" width="359" height="208" rx="13" fill="#55330B"/>
</g>
<g filter="url(#filter1_d_2308_7)">
<g filter="url(#filter2_i_2308_7)">
<path d="M60.7273 118.511C58.0455 118.511 55.7386 117.943 53.8068 116.807C51.8864 115.659 50.4091 114.068 49.375 112.034C48.3523 110 47.8409 107.659 47.8409 105.011C47.8409 102.33 48.358 99.9773 49.392 97.9545C50.4375 95.9205 51.9205 94.3352 53.8409 93.1989C55.7614 92.0511 58.0455 91.4773 60.6932 91.4773C62.9773 91.4773 64.9773 91.892 66.6932 92.7216C68.4091 93.5511 69.767 94.7159 70.767 96.2159C71.767 97.7159 72.3182 99.4773 72.4205 101.5H65.5682C65.375 100.193 64.8636 99.142 64.0341 98.3466C63.2159 97.5398 62.142 97.1364 60.8125 97.1364C59.6875 97.1364 58.7045 97.4432 57.8636 98.0568C57.0341 98.6591 56.3864 99.5398 55.9205 100.699C55.4545 101.858 55.2216 103.261 55.2216 104.909C55.2216 106.58 55.4489 108 55.9034 109.17C56.3693 110.341 57.0227 111.233 57.8636 111.847C58.7045 112.46 59.6875 112.767 60.8125 112.767C61.642 112.767 62.3864 112.597 63.0455 112.256C63.7159 111.915 64.267 111.42 64.6989 110.773C65.142 110.114 65.4318 109.324 65.5682 108.403H72.4205C72.3068 110.403 71.7614 112.165 70.7841 113.688C69.8182 115.199 68.483 116.381 66.7784 117.233C65.0739 118.085 63.0568 118.511 60.7273 118.511ZM88.8991 118.511C86.2514 118.511 83.9616 117.949 82.0298 116.824C80.1094 115.687 78.6264 114.108 77.581 112.085C76.5355 110.051 76.0128 107.693 76.0128 105.011C76.0128 102.307 76.5355 99.9432 77.581 97.9205C78.6264 95.8864 80.1094 94.3068 82.0298 93.1818C83.9616 92.0455 86.2514 91.4773 88.8991 91.4773C91.5469 91.4773 93.831 92.0455 95.7514 93.1818C97.6832 94.3068 99.1719 95.8864 100.217 97.9205C101.263 99.9432 101.786 102.307 101.786 105.011C101.786 107.693 101.263 110.051 100.217 112.085C99.1719 114.108 97.6832 115.687 95.7514 116.824C93.831 117.949 91.5469 118.511 88.8991 118.511ZM88.9332 112.886C90.1378 112.886 91.1435 112.545 91.9503 111.864C92.7571 111.17 93.3651 110.227 93.7741 109.034C94.1946 107.841 94.4048 106.483 94.4048 104.96C94.4048 103.438 94.1946 102.08 93.7741 100.886C93.3651 99.6932 92.7571 98.75 91.9503 98.0568C91.1435 97.3636 90.1378 97.017 88.9332 97.017C87.7173 97.017 86.6946 97.3636 85.8651 98.0568C85.0469 98.75 84.4276 99.6932 84.0071 100.886C83.598 102.08 83.3935 103.438 83.3935 104.96C83.3935 106.483 83.598 107.841 84.0071 109.034C84.4276 110.227 85.0469 111.17 85.8651 111.864C86.6946 112.545 87.7173 112.886 88.9332 112.886ZM113.768 102.864V118H106.507V91.8182H113.428V96.4375H113.734C114.314 94.9148 115.286 93.7102 116.649 92.8239C118.013 91.9261 119.666 91.4773 121.609 91.4773C123.428 91.4773 125.013 91.875 126.365 92.6705C127.717 93.4659 128.768 94.6023 129.518 96.0795C130.268 97.5455 130.643 99.2955 130.643 101.33V118H123.382V102.625C123.393 101.023 122.984 99.7727 122.155 98.875C121.325 97.9659 120.183 97.5114 118.729 97.5114C117.751 97.5114 116.888 97.7216 116.138 98.142C115.399 98.5625 114.82 99.1761 114.399 99.983C113.99 100.778 113.78 101.739 113.768 102.864ZM159.838 91.8182L150.685 118H142.503L133.349 91.8182H141.02L146.457 110.551H146.73L152.151 91.8182H159.838Z" fill="white"/>
</g>
<g filter="url(#filter3_i_2308_7)">
<path d="M172.142 118.443C171.017 118.443 170.051 118.045 169.244 117.25C168.449 116.443 168.051 115.477 168.051 114.352C168.051 113.239 168.449 112.284 169.244 111.489C170.051 110.693 171.017 110.295 172.142 110.295C173.233 110.295 174.188 110.693 175.006 111.489C175.824 112.284 176.233 113.239 176.233 114.352C176.233 115.102 176.04 115.79 175.653 116.415C175.278 117.028 174.784 117.523 174.17 117.898C173.557 118.261 172.881 118.443 172.142 118.443ZM211.53 83.0909V118H205.155L189.967 96.0284H189.712V118H182.331V83.0909H188.808L203.876 105.045H204.183V83.0909H211.53ZM217.628 118V83.0909H241.151V89.1761H225.009V97.4943H239.94V103.58H225.009V111.915H241.219V118H217.628ZM254.876 118L244.888 83.0909H252.95L258.729 107.347H259.018L265.393 83.0909H272.297L278.655 107.398H278.962L284.74 83.0909H292.803L282.814 118H275.621L268.973 95.1761H268.7L262.07 118H254.876ZM315.362 93.1307C315.226 91.7557 314.641 90.6875 313.607 89.9261C312.572 89.1648 311.169 88.7841 309.396 88.7841C308.192 88.7841 307.175 88.9545 306.345 89.2955C305.516 89.625 304.879 90.0852 304.436 90.6761C304.004 91.267 303.788 91.9375 303.788 92.6875C303.766 93.3125 303.896 93.858 304.18 94.3239C304.476 94.7898 304.879 95.1932 305.391 95.5341C305.902 95.8636 306.493 96.1534 307.163 96.4034C307.834 96.642 308.55 96.8466 309.311 97.017L312.447 97.767C313.97 98.108 315.368 98.5625 316.641 99.1307C317.913 99.6989 319.016 100.398 319.947 101.227C320.879 102.057 321.601 103.034 322.112 104.159C322.635 105.284 322.902 106.574 322.913 108.028C322.902 110.165 322.357 112.017 321.277 113.585C320.209 115.142 318.663 116.352 316.641 117.216C314.629 118.068 312.203 118.494 309.362 118.494C306.544 118.494 304.089 118.062 301.999 117.199C299.919 116.335 298.294 115.057 297.124 113.364C295.964 111.659 295.357 109.551 295.3 107.04H302.442C302.521 108.21 302.857 109.187 303.447 109.972C304.05 110.744 304.851 111.33 305.851 111.727C306.862 112.114 308.004 112.307 309.277 112.307C310.527 112.307 311.612 112.125 312.533 111.761C313.464 111.398 314.186 110.892 314.697 110.244C315.209 109.597 315.464 108.852 315.464 108.011C315.464 107.227 315.232 106.568 314.766 106.034C314.311 105.5 313.641 105.045 312.754 104.67C311.879 104.295 310.805 103.955 309.533 103.648L305.732 102.693C302.788 101.977 300.464 100.858 298.76 99.3352C297.055 97.8125 296.209 95.7614 296.22 93.1818C296.209 91.0682 296.771 89.2216 297.908 87.642C299.055 86.0625 300.629 84.8295 302.629 83.9432C304.629 83.0568 306.902 82.6136 309.447 82.6136C312.038 82.6136 314.3 83.0568 316.232 83.9432C318.175 84.8295 319.686 86.0625 320.766 87.642C321.845 89.2216 322.402 91.0511 322.436 93.1307H315.362Z" fill="#FFB803"/>
</g>
</g>
<g filter="url(#filter4_i_2308_7)">
<circle cx="26.5" cy="32.5" r="6.5" fill="#D29700"/>
</g>
<g filter="url(#filter5_i_2308_7)">
<circle cx="26.5" cy="195.5" r="6.5" fill="#D29700"/>
</g>
<g filter="url(#filter6_i_2308_7)">
<circle cx="341.5" cy="32.5" r="6.5" fill="#D29700"/>
</g>
<g filter="url(#filter7_i_2308_7)">
<circle cx="341.5" cy="195.5" r="6.5" fill="#D29700"/>
</g>
<defs>
<filter id="filter0_i_2308_7" x="6" y="9" width="359" height="208" filterUnits="userSpaceOnUse" color-interpolation-filters="sRGB">
<feFlood flood-opacity="0" result="BackgroundImageFix"/>
<feBlend mode="normal" in="SourceGraphic" in2="BackgroundImageFix" result="shape"/>
<feColorMatrix in="SourceAlpha" type="matrix" values="0 0 0 0 0 0 0 0 0 0 0 0 0 0 0 0 0 0 127 0" result="hardAlpha"/>
<feMorphology radius="5" operator="erode" in="SourceAlpha" result="effect1_innerShadow_2308_7"/>
<feOffset/>
<feGaussianBlur stdDeviation="10"/>
<feComposite in2="hardAlpha" operator="arithmetic" k2="-1" k3="1"/>
<feColorMatrix type="matrix" values="0 0 0 0 0.0708333 0 0 0 0 0.0518264 0 0 0 0 0.00295139 0 0 0 1 0"/>
<feBlend mode="normal" in2="shape" result="effect1_innerShadow_2308_7"/>
</filter>
<filter id="filter1_d_2308_7" x="47.8409" y="82.6136" width="282.072" height="42.8977" filterUnits="userSpaceOnUse" color-interpolation-filters="sRGB">
<feFlood flood-opacity="0" result="BackgroundImageFix"/>
<feColorMatrix in="SourceAlpha" type="matrix" values="0 0 0 0 0 0 0 0 0 0 0 0 0 0 0 0 0 0 127 0" result="hardAlpha"/>
<feOffset dx="4" dy="4"/>
<feGaussianBlur stdDeviation="1.5"/>
<feComposite in2="hardAlpha" operator="out"/>
<feColorMatrix type="matrix" values="0 0 0 0 0.695833 0 0 0 0 0.45925 0 0 0 0 0 0 0 0 0.42 0"/>
<feBlend mode="normal" in2="BackgroundImageFix" result="effect1_dropShadow_2308_7"/>
<feBlend mode="normal" in="SourceGraphic" in2="effect1_dropShadow_2308_7" result="shape"/>
</filter>
<filter id="filter2_i_2308_7" x="47.8409" y="91.4773" width="112.997" height="28.0341" filterUnits="userSpaceOnUse" color-interpolation-filters="sRGB">
<feFlood flood-opacity="0" result="BackgroundImageFix"/>
<feBlend mode="normal" in="SourceGraphic" in2="BackgroundImageFix" result="shape"/>
<feColorMatrix in="SourceAlpha" type="matrix" values="0 0 0 0 0 0 0 0 0 0 0 0 0 0 0 0 0 0 127 0" result="hardAlpha"/>
<feOffset dx="1" dy="1"/>
<feGaussianBlur stdDeviation="2"/>
<feComposite in2="hardAlpha" operator="arithmetic" k2="-1" k3="1"/>
<feColorMatrix type="matrix" values="0 0 0 0 0.3625 0 0 0 0 0.25517 0 0 0 0 0.0468229 0 0 0 1 0"/>
<feBlend mode="normal" in2="shape" result="effect1_innerShadow_2308_7"/>
</filter>
<filter id="filter3_i_2308_7" x="168.051" y="82.6136" width="154.862" height="38.8807" filterUnits="userSpaceOnUse" color-interpolation-filters="sRGB">
<feFlood flood-opacity="0" result="BackgroundImageFix"/>
<feBlend mode="normal" in="SourceGraphic" in2="BackgroundImageFix" result="shape"/>
<feColorMatrix in="SourceAlpha" type="matrix" values="0 0 0 0 0 0 0 0 0 0 0 0 0 0 0 0 0 0 127 0" result="hardAlpha"/>
<feOffset dy="3"/>
<feGaussianBlur stdDeviation="2"/>
<feComposite in2="hardAlpha" operator="arithmetic" k2="-1" k3="1"/>
<feColorMatrix type="matrix" values="0 0 0 0 0.725 0 0 0 0 0.483635 0 0 0 0 0.0151042 0 0 0 1 0"/>
<feBlend mode="normal" in2="shape" result="effect1_innerShadow_2308_7"/>
</filter>
<filter id="filter4_i_2308_7" x="20" y="26" width="13" height="17" filterUnits="userSpaceOnUse" color-interpolation-filters="sRGB">
<feFlood flood-opacity="0" result="BackgroundImageFix"/>
<feBlend mode="normal" in="SourceGraphic" in2="BackgroundImageFix" result="shape"/>
<feColorMatrix in="SourceAlpha" type="matrix" values="0 0 0 0 0 0 0 0 0 0 0 0 0 0 0 0 0 0 127 0" result="hardAlpha"/>
<feOffset dy="4"/>
<feGaussianBlur stdDeviation="2"/>
<feComposite in2="hardAlpha" operator="arithmetic" k2="-1" k3="1"/>
<feColorMatrix type="matrix" values="0 0 0 0 0.108333 0 0 0 0 0.074109 0 0 0 0 0.00767361 0 0 0 0.49 0"/>
<feBlend mode="normal" in2="shape" result="effect1_innerShadow_2308_7"/>
</filter>
<filter id="filter5_i_2308_7" x="20" y="189" width="13" height="17" filterUnits="userSpaceOnUse" color-interpolation-filters="sRGB">
<feFlood flood-opacity="0" result="BackgroundImageFix"/>
<feBlend mode="normal" in="SourceGraphic" in2="BackgroundImageFix" result="shape"/>
<feColorMatrix in="SourceAlpha" type="matrix" values="0 0 0 0 0 0 0 0 0 0 0 0 0 0 0 0 0 0 127 0" result="hardAlpha"/>
<feOffset dy="4"/>
<feGaussianBlur stdDeviation="2"/>
<feComposite in2="hardAlpha" operator="arithmetic" k2="-1" k3="1"/>
<feColorMatrix type="matrix" values="0 0 0 0 0.108333 0 0 0 0 0.074109 0 0 0 0 0.00767361 0 0 0 0.49 0"/>
<feBlend mode="normal" in2="shape" result="effect1_innerShadow_2308_7"/>
</filter>
<filter id="filter6_i_2308_7" x="335" y="26" width="13" height="17" filterUnits="userSpaceOnUse" color-interpolation-filters="sRGB">
<feFlood flood-opacity="0" result="BackgroundImageFix"/>
<feBlend mode="normal" in="SourceGraphic" in2="BackgroundImageFix" result="shape"/>
<feColorMatrix in="SourceAlpha" type="matrix" values="0 0 0 0 0 0 0 0 0 0 0 0 0 0 0 0 0 0 127 0" result="hardAlpha"/>
<feOffset dy="4"/>
<feGaussianBlur stdDeviation="2"/>
<feComposite in2="hardAlpha" operator="arithmetic" k2="-1" k3="1"/>
<feColorMatrix type="matrix" values="0 0 0 0 0.108333 0 0 0 0 0.074109 0 0 0 0 0.00767361 0 0 0 0.49 0"/>
<feBlend mode="normal" in2="shape" result="effect1_innerShadow_2308_7"/>
</filter>
<filter id="filter7_i_2308_7" x="335" y="189" width="13" height="17" filterUnits="userSpaceOnUse" color-interpolation-filters="sRGB">
<feFlood flood-opacity="0" result="BackgroundImageFix"/>
<feBlend mode="normal" in="SourceGraphic" in2="BackgroundImageFix" result="shape"/>
<feColorMatrix in="SourceAlpha" type="matrix" values="0 0 0 0 0 0 0 0 0 0 0 0 0 0 0 0 0 0 127 0" result="hardAlpha"/>
<feOffset dy="4"/>
<feGaussianBlur stdDeviation="2"/>
<feComposite in2="hardAlpha" operator="arithmetic" k2="-1" k3="1"/>
<feColorMatrix type="matrix" values="0 0 0 0 0.108333 0 0 0 0 0.074109 0 0 0 0 0.00767361 0 0 0 0.49 0"/>
<feBlend mode="normal" in2="shape" result="effect1_innerShadow_2308_7"/>
</filter>
</defs>
</svg>
