<svg width="359" height="274" viewBox="0 0 359 274" fill="none" xmlns="http://www.w3.org/2000/svg">
<g filter="url(#filter0_ii_2308_7)">
<rect width="359" height="274" rx="13" fill="#DD9F00"/>
</g>
<path d="M57.7273 160.511C55.0455 160.511 52.7386 159.943 50.8068 158.807C48.8864 157.659 47.4091 156.068 46.375 154.034C45.3523 152 44.8409 149.659 44.8409 147.011C44.8409 144.33 45.358 141.977 46.392 139.955C47.4375 137.92 48.9205 136.335 50.8409 135.199C52.7614 134.051 55.0455 133.477 57.6932 133.477C59.9773 133.477 61.9773 133.892 63.6932 134.722C65.4091 135.551 66.767 136.716 67.767 138.216C68.767 139.716 69.3182 141.477 69.4205 143.5H62.5682C62.375 142.193 61.8636 141.142 61.0341 140.347C60.2159 139.54 59.142 139.136 57.8125 139.136C56.6875 139.136 55.7045 139.443 54.8636 140.057C54.0341 140.659 53.3864 141.54 52.9205 142.699C52.4545 143.858 52.2216 145.261 52.2216 146.909C52.2216 148.58 52.4489 150 52.9034 151.17C53.3693 152.341 54.0227 153.233 54.8636 153.847C55.7045 154.46 56.6875 154.767 57.8125 154.767C58.642 154.767 59.3864 154.597 60.0455 154.256C60.7159 153.915 61.267 153.42 61.6989 152.773C62.142 152.114 62.4318 151.324 62.5682 150.403H69.4205C69.3068 152.403 68.7614 154.165 67.7841 155.688C66.8182 157.199 65.483 158.381 63.7784 159.233C62.0739 160.085 60.0568 160.511 57.7273 160.511ZM85.8991 160.511C83.2514 160.511 80.9616 159.949 79.0298 158.824C77.1094 157.687 75.6264 156.108 74.581 154.085C73.5355 152.051 73.0128 149.693 73.0128 147.011C73.0128 144.307 73.5355 141.943 74.581 139.92C75.6264 137.886 77.1094 136.307 79.0298 135.182C80.9616 134.045 83.2514 133.477 85.8991 133.477C88.5469 133.477 90.831 134.045 92.7514 135.182C94.6832 136.307 96.1719 137.886 97.2173 139.92C98.2628 141.943 98.7855 144.307 98.7855 147.011C98.7855 149.693 98.2628 152.051 97.2173 154.085C96.1719 156.108 94.6832 157.687 92.7514 158.824C90.831 159.949 88.5469 160.511 85.8991 160.511ZM85.9332 154.886C87.1378 154.886 88.1435 154.545 88.9503 153.864C89.7571 153.17 90.3651 152.227 90.7741 151.034C91.1946 149.841 91.4048 148.483 91.4048 146.96C91.4048 145.438 91.1946 144.08 90.7741 142.886C90.3651 141.693 89.7571 140.75 88.9503 140.057C88.1435 139.364 87.1378 139.017 85.9332 139.017C84.7173 139.017 83.6946 139.364 82.8651 140.057C82.0469 140.75 81.4276 141.693 81.0071 142.886C80.598 144.08 80.3935 145.438 80.3935 146.96C80.3935 148.483 80.598 149.841 81.0071 151.034C81.4276 152.227 82.0469 153.17 82.8651 153.864C83.6946 154.545 84.7173 154.886 85.9332 154.886ZM110.768 144.864V160H103.507V133.818H110.428V138.438H110.734C111.314 136.915 112.286 135.71 113.649 134.824C115.013 133.926 116.666 133.477 118.609 133.477C120.428 133.477 122.013 133.875 123.365 134.67C124.717 135.466 125.768 136.602 126.518 138.08C127.268 139.545 127.643 141.295 127.643 143.33V160H120.382V144.625C120.393 143.023 119.984 141.773 119.155 140.875C118.325 139.966 117.183 139.511 115.729 139.511C114.751 139.511 113.888 139.722 113.138 140.142C112.399 140.562 111.82 141.176 111.399 141.983C110.99 142.778 110.78 143.739 110.768 144.864ZM156.838 133.818L147.685 160H139.503L130.349 133.818H138.02L143.457 152.551H143.73L149.151 133.818H156.838ZM163.158 160.443C162.033 160.443 161.067 160.045 160.26 159.25C159.464 158.443 159.067 157.477 159.067 156.352C159.067 155.239 159.464 154.284 160.26 153.489C161.067 152.693 162.033 152.295 163.158 152.295C164.249 152.295 165.203 152.693 166.021 153.489C166.839 154.284 167.249 155.239 167.249 156.352C167.249 157.102 167.055 157.79 166.669 158.415C166.294 159.028 165.8 159.523 165.186 159.898C164.572 160.261 163.896 160.443 163.158 160.443ZM202.545 125.091V160H196.17L180.983 138.028H180.727V160H173.347V125.091H179.824L194.892 147.045H195.199V125.091H202.545ZM208.643 160V125.091H232.166V131.176H216.024V139.494H230.956V145.58H216.024V153.915H232.234V160H208.643ZM245.892 160L235.903 125.091H243.966L249.744 149.347H250.034L256.409 125.091H263.312L269.67 149.398H269.977L275.756 125.091H283.818L273.83 160H266.636L259.989 137.176H259.716L253.085 160H245.892ZM306.378 135.131C306.241 133.756 305.656 132.687 304.622 131.926C303.588 131.165 302.185 130.784 300.412 130.784C299.207 130.784 298.19 130.955 297.361 131.295C296.531 131.625 295.895 132.085 295.452 132.676C295.02 133.267 294.804 133.938 294.804 134.688C294.781 135.312 294.912 135.858 295.196 136.324C295.491 136.79 295.895 137.193 296.406 137.534C296.918 137.864 297.509 138.153 298.179 138.403C298.849 138.642 299.565 138.847 300.327 139.017L303.463 139.767C304.986 140.108 306.384 140.562 307.656 141.131C308.929 141.699 310.031 142.398 310.963 143.227C311.895 144.057 312.616 145.034 313.128 146.159C313.651 147.284 313.918 148.574 313.929 150.028C313.918 152.165 313.372 154.017 312.293 155.585C311.224 157.142 309.679 158.352 307.656 159.216C305.645 160.068 303.219 160.494 300.378 160.494C297.56 160.494 295.105 160.062 293.014 159.199C290.935 158.335 289.31 157.057 288.139 155.364C286.98 153.659 286.372 151.551 286.315 149.04H293.457C293.537 150.21 293.872 151.187 294.463 151.972C295.065 152.744 295.866 153.33 296.866 153.727C297.878 154.114 299.02 154.307 300.293 154.307C301.543 154.307 302.628 154.125 303.548 153.761C304.48 153.398 305.202 152.892 305.713 152.244C306.224 151.597 306.48 150.852 306.48 150.011C306.48 149.227 306.247 148.568 305.781 148.034C305.327 147.5 304.656 147.045 303.77 146.67C302.895 146.295 301.821 145.955 300.548 145.648L296.747 144.693C293.804 143.977 291.48 142.858 289.776 141.335C288.071 139.812 287.224 137.761 287.236 135.182C287.224 133.068 287.787 131.222 288.923 129.642C290.071 128.062 291.645 126.83 293.645 125.943C295.645 125.057 297.918 124.614 300.463 124.614C303.054 124.614 305.315 125.057 307.247 125.943C309.19 126.83 310.702 128.062 311.781 129.642C312.861 131.222 313.418 133.051 313.452 135.131H306.378Z" fill="white"/>
<defs>
<filter id="filter0_ii_2308_7" x="-9" y="-9" width="374" height="289" filterUnits="userSpaceOnUse" color-interpolation-filters="sRGB">
<feFlood flood-opacity="0" result="BackgroundImageFix"/>
<feBlend mode="normal" in="SourceGraphic" in2="BackgroundImageFix" result="shape"/>
<feColorMatrix in="SourceAlpha" type="matrix" values="0 0 0 0 0 0 0 0 0 0 0 0 0 0 0 0 0 0 127 0" result="hardAlpha"/>
<feOffset dx="-9" dy="-9"/>
<feGaussianBlur stdDeviation="12.5"/>
<feComposite in2="hardAlpha" operator="arithmetic" k2="-1" k3="1"/>
<feColorMatrix type="matrix" values="0 0 0 0 0.966667 0 0 0 0 0.818928 0 0 0 0 0.439028 0 0 0 1 0"/>
<feBlend mode="normal" in2="shape" result="effect1_innerShadow_2308_7"/>
<feColorMatrix in="SourceAlpha" type="matrix" values="0 0 0 0 0 0 0 0 0 0 0 0 0 0 0 0 0 0 127 0" result="hardAlpha"/>
<feOffset dx="6" dy="6"/>
<feGaussianBlur stdDeviation="3"/>
<feComposite in2="hardAlpha" operator="arithmetic" k2="-1" k3="1"/>
<feColorMatrix type="matrix" values="0 0 0 0 0.283333 0 0 0 0 0.222818 0 0 0 0 0.00826389 0 0 0 0.9 0"/>
<feBlend mode="normal" in2="effect1_innerShadow_2308_7" result="effect2_innerShadow_2308_7"/>
</filter>
</defs>
</svg>
